<mxfile host="app.diagrams.net" modified="2022-04-04T21:44:24.115Z" agent="5.0 (Macintosh; Intel Mac OS X 10_13_6) AppleWebKit/605.1.15 (KHTML, like Gecko) Version/13.1.2 Safari/605.1.15" etag="4p6IPt1Nd-q3LONQX608" version="17.4.0" type="github">
  <diagram id="kgpKYQtTHZ0yAKxKKP6v" name="Page-1">
    <mxGraphModel dx="746" dy="540" grid="1" gridSize="10" guides="1" tooltips="1" connect="1" arrows="1" fold="1" page="1" pageScale="1" pageWidth="850" pageHeight="1100" math="0" shadow="0">
      <root>
        <mxCell id="0" />
        <mxCell id="1" parent="0" />
        <mxCell id="ICjPQV3ArQwEbX4Lf4v3-1" value="push button&amp;nbsp;" style="rounded=0;whiteSpace=wrap;html=1;" vertex="1" parent="1">
          <mxGeometry x="80" y="120" width="120" height="20" as="geometry" />
        </mxCell>
        <mxCell id="ICjPQV3ArQwEbX4Lf4v3-2" value="" style="endArrow=classic;html=1;rounded=0;" edge="1" parent="1">
          <mxGeometry width="50" height="50" relative="1" as="geometry">
            <mxPoint x="80" y="350" as="sourcePoint" />
            <mxPoint x="710" y="350" as="targetPoint" />
          </mxGeometry>
        </mxCell>
        <mxCell id="ICjPQV3ArQwEbX4Lf4v3-10" value="time" style="edgeLabel;html=1;align=center;verticalAlign=middle;resizable=0;points=[];" vertex="1" connectable="0" parent="ICjPQV3ArQwEbX4Lf4v3-2">
          <mxGeometry x="-0.473" y="2" relative="1" as="geometry">
            <mxPoint as="offset" />
          </mxGeometry>
        </mxCell>
        <mxCell id="ICjPQV3ArQwEbX4Lf4v3-3" value="bat_main_FET &amp;nbsp;= on" style="rounded=0;whiteSpace=wrap;html=1;" vertex="1" parent="1">
          <mxGeometry x="80" y="160" width="600" height="20" as="geometry" />
        </mxCell>
        <mxCell id="ICjPQV3ArQwEbX4Lf4v3-5" value="MCU boot" style="rounded=0;whiteSpace=wrap;html=1;" vertex="1" parent="1">
          <mxGeometry x="90" y="200" width="70" height="20" as="geometry" />
        </mxCell>
        <mxCell id="ICjPQV3ArQwEbX4Lf4v3-6" value="FET high" style="rounded=0;whiteSpace=wrap;html=1;fillColor=#dae8fc;strokeColor=none;align=left;" vertex="1" parent="1">
          <mxGeometry x="80" y="140" width="120" height="20" as="geometry" />
        </mxCell>
        <mxCell id="ICjPQV3ArQwEbX4Lf4v3-7" value="FET high" style="rounded=0;whiteSpace=wrap;html=1;fillColor=#dae8fc;strokeColor=none;align=left;" vertex="1" parent="1">
          <mxGeometry x="140" y="180" width="540" height="20" as="geometry" />
        </mxCell>
        <mxCell id="ICjPQV3ArQwEbX4Lf4v3-9" value="MCU normal mode" style="rounded=0;whiteSpace=wrap;html=1;align=left;" vertex="1" parent="1">
          <mxGeometry x="160" y="200" width="360" height="20" as="geometry" />
        </mxCell>
        <mxCell id="ICjPQV3ArQwEbX4Lf4v3-11" value="MCU shutdown mode" style="rounded=0;whiteSpace=wrap;html=1;" vertex="1" parent="1">
          <mxGeometry x="520" y="200" width="160" height="20" as="geometry" />
        </mxCell>
        <mxCell id="ICjPQV3ArQwEbX4Lf4v3-13" value="Wifi router power = on" style="rounded=0;whiteSpace=wrap;html=1;align=left;" vertex="1" parent="1">
          <mxGeometry x="120" y="230" width="560" height="20" as="geometry" />
        </mxCell>
        <mxCell id="ICjPQV3ArQwEbX4Lf4v3-14" value="VBUS power = on" style="rounded=0;whiteSpace=wrap;html=1;align=left;" vertex="1" parent="1">
          <mxGeometry x="150" y="260" width="530" height="20" as="geometry" />
        </mxCell>
        <mxCell id="ICjPQV3ArQwEbX4Lf4v3-15" value="drive raspberry pi = on" style="rounded=0;whiteSpace=wrap;html=1;align=left;" vertex="1" parent="1">
          <mxGeometry x="150" y="290" width="350" height="20" as="geometry" />
        </mxCell>
        <mxCell id="ICjPQV3ArQwEbX4Lf4v3-16" value="shutdown" style="rounded=0;whiteSpace=wrap;html=1;align=left;" vertex="1" parent="1">
          <mxGeometry x="500" y="290" width="140" height="20" as="geometry" />
        </mxCell>
      </root>
    </mxGraphModel>
  </diagram>
</mxfile>
